# xmcd CD database file
#
# Track frame offsets:
#	150
#	14532
#	29412
#	53175
#	71312
#	87702
#	109235
#	139930
#	160075
#	182720
#	203732
#
# Disc length: 2807 seconds
#
# Revision: 0
# Processed by: cddbd v1.5.2PL0 Copyright (c) Steve Scherf et al.
# Submitted via: CDex 1.51
#
DISCID=990af50b
DTITLE=Anders Aarum - The Lucky Strike
DYEAR=2000
DGENRE=Jazz
TTITLE0=Gutter Ball Strut
TTITLE1=The Dust Buster
TTITLE2=A Spare Waltz
TTITLE3=Sylvester
TTITLE4=March
TTITLE5=Second Line Turkey
TTITLE6=Split Decison
TTITLE7=Gonna Go Bowlin'
TTITLE8=Wniter Piece
TTITLE9=THe Lucky Strike
TTITLE10=March(reprise)
EXTD=YEAR: 2000
EXTT0=
EXTT1=
EXTT2=
EXTT3=
EXTT4=
EXTT5=
EXTT6=
EXTT7=
EXTT8=
EXTT9=
EXTT10=
PLAYORDER=
